solid workspace
facet normal -1.0 0.0 0.0
  outer loop
    vertex 903.8442669806324 22.38513303895098 12.0
    vertex 903.8442669806324 20.435133038950973 4.00741339852274e-29
    vertex 903.8442669806324 20.435133038950973 12.0
  endloop
endfacet
facet normal -1.0 0.0 0.0
  outer loop
    vertex 903.8442669806324 20.435133038950973 4.00741339852274e-29
    vertex 903.8442669806324 22.38513303895098 12.0
    vertex 903.8442669806324 22.38513303895098 4.00741339852274e-29
  endloop
endfacet
facet normal 0.0 1.0 0.0
  outer loop
    vertex 891.8292669806322 31.535133038950928 12.0
    vertex 893.7792669806321 31.535133038950928 4.00741339852274e-29
    vertex 891.8292669806322 31.535133038950928 4.00741339852274e-29
  endloop
endfacet
facet normal 0.0 1.0 0.0
  outer loop
    vertex 893.7792669806321 31.535133038950928 4.00741339852274e-29
    vertex 891.8292669806322 31.535133038950928 12.0
    vertex 893.7792669806321 31.535133038950928 12.0
  endloop
endfacet
facet normal 0.0 1.0 0.0
  outer loop
    vertex 885.5292669806321 18.685133038950962 12.0
    vertex 893.7792669806321 18.685133038950962 4.00741339852274e-29
    vertex 885.5292669806321 18.685133038950962 4.00741339852274e-29
  endloop
endfacet
facet normal 0.0 1.0 0.0
  outer loop
    vertex 893.7792669806321 18.685133038950962 4.00741339852274e-29
    vertex 885.5292669806321 18.685133038950962 12.0
    vertex 893.7792669806321 18.685133038950962 12.0
  endloop
endfacet
facet normal 0.0 1.0 0.0
  outer loop
    vertex 872.8292669806319 40.73513303895091 12.0
    vertex 893.6792669806321 40.73513303895091 4.00741339852274e-29
    vertex 872.8292669806319 40.73513303895091 4.00741339852274e-29
  endloop
endfacet
facet normal 0.0 1.0 0.0
  outer loop
    vertex 893.6792669806321 40.73513303895091 4.00741339852274e-29
    vertex 872.8292669806319 40.73513303895091 12.0
    vertex 893.6792669806321 40.73513303895091 12.0
  endloop
endfacet
facet normal 1.0 0.0 0.0
  outer loop
    vertex 891.8292669806322 22.185133038950934 4.00741339852274e-29
    vertex 891.8292669806322 20.235133038950927 12.0
    vertex 891.8292669806322 20.235133038950927 4.00741339852274e-29
  endloop
endfacet
facet normal 1.0 0.0 0.0
  outer loop
    vertex 891.8292669806322 20.235133038950927 12.0
    vertex 891.8292669806322 22.185133038950934 4.00741339852274e-29
    vertex 891.8292669806322 22.185133038950934 12.0
  endloop
endfacet
facet normal -0.0 -1.0 -0.0
  outer loop
    vertex 885.6292669806321 41.93513303895095 12.0
    vertex 874.729266980632 41.93513303895095 4.00741339852274e-29
    vertex 885.6292669806321 41.93513303895095 4.00741339852274e-29
  endloop
endfacet
facet normal -0.0 -1.0 -0.0
  outer loop
    vertex 874.729266980632 41.93513303895095 4.00741339852274e-29
    vertex 885.6292669806321 41.93513303895095 12.0
    vertex 874.729266980632 41.93513303895095 12.0
  endloop
endfacet
facet normal -0.0 -1.0 -0.0
  outer loop
    vertex 893.7792669806321 35.035133038950946 12.0
    vertex 872.729266980632 35.035133038950946 4.00741339852274e-29
    vertex 893.7792669806321 35.035133038950946 4.00741339852274e-29
  endloop
endfacet
facet normal -0.0 -1.0 -0.0
  outer loop
    vertex 872.729266980632 35.035133038950946 4.00741339852274e-29
    vertex 893.7792669806321 35.035133038950946 12.0
    vertex 872.729266980632 35.035133038950946 12.0
  endloop
endfacet
facet normal 1.0 0.0 0.0
  outer loop
    vertex 872.8292669806319 47.58513303895098 4.00741339852274e-29
    vertex 872.8292669806319 40.73513303895091 12.0
    vertex 872.8292669806319 40.73513303895091 4.00741339852274e-29
  endloop
endfacet
facet normal 1.0 0.0 0.0
  outer loop
    vertex 872.8292669806319 40.73513303895091 12.0
    vertex 872.8292669806319 47.58513303895098 4.00741339852274e-29
    vertex 872.8292669806319 47.58513303895098 12.0
  endloop
endfacet
facet normal -0.0 -1.0 -0.0
  outer loop
    vertex 874.729266980632 47.58513303895098 12.0
    vertex 872.8292669806319 47.58513303895098 4.00741339852274e-29
    vertex 874.729266980632 47.58513303895098 4.00741339852274e-29
  endloop
endfacet
facet normal -0.0 -1.0 -0.0
  outer loop
    vertex 872.8292669806319 47.58513303895098 4.00741339852274e-29
    vertex 874.729266980632 47.58513303895098 12.0
    vertex 872.8292669806319 47.58513303895098 12.0
  endloop
endfacet
facet normal 1.0 0.0 0.0
  outer loop
    vertex 872.729266980632 35.035133038950946 4.00741339852274e-29
    vertex 872.729266980632 27.985133038950924 12.0
    vertex 872.729266980632 27.985133038950924 4.00741339852274e-29
  endloop
endfacet
facet normal 1.0 0.0 0.0
  outer loop
    vertex 872.729266980632 27.985133038950924 12.0
    vertex 872.729266980632 35.035133038950946 4.00741339852274e-29
    vertex 872.729266980632 35.035133038950946 12.0
  endloop
endfacet
facet normal 0.0 1.0 0.0
  outer loop
    vertex 887.0792669806322 33.485133038950934 12.0
    vertex 891.8292669806322 33.485133038950934 4.00741339852274e-29
    vertex 887.0792669806322 33.485133038950934 4.00741339852274e-29
  endloop
endfacet
facet normal 0.0 1.0 0.0
  outer loop
    vertex 891.8292669806322 33.485133038950934 4.00741339852274e-29
    vertex 887.0792669806322 33.485133038950934 12.0
    vertex 891.8292669806322 33.485133038950934 12.0
  endloop
endfacet
facet normal -1.0 0.0 0.0
  outer loop
    vertex 893.7792669806321 35.035133038950946 12.0
    vertex 893.7792669806321 31.535133038950928 4.00741339852274e-29
    vertex 893.7792669806321 31.535133038950928 12.0
  endloop
endfacet
facet normal -1.0 0.0 0.0
  outer loop
    vertex 893.7792669806321 31.535133038950928 4.00741339852274e-29
    vertex 893.7792669806321 35.035133038950946 12.0
    vertex 893.7792669806321 35.035133038950946 4.00741339852274e-29
  endloop
endfacet
facet normal 1.0 0.0 0.0
  outer loop
    vertex 908.194266980632 33.28513303895098 4.00741339852274e-29
    vertex 908.194266980632 20.435133038950973 12.0
    vertex 908.194266980632 20.435133038950973 4.00741339852274e-29
  endloop
endfacet
facet normal 1.0 0.0 0.0
  outer loop
    vertex 908.194266980632 20.435133038950973 12.0
    vertex 908.194266980632 33.28513303895098 4.00741339852274e-29
    vertex 908.194266980632 33.28513303895098 12.0
  endloop
endfacet
facet normal 1.0 0.0 0.0
  outer loop
    vertex 891.8292669806322 33.485133038950934 4.00741339852274e-29
    vertex 891.8292669806322 31.535133038950928 12.0
    vertex 891.8292669806322 31.535133038950928 4.00741339852274e-29
  endloop
endfacet
facet normal 1.0 0.0 0.0
  outer loop
    vertex 891.8292669806322 31.535133038950928 12.0
    vertex 891.8292669806322 33.485133038950934 4.00741339852274e-29
    vertex 891.8292669806322 33.485133038950934 12.0
  endloop
endfacet
facet normal 0.0 1.0 0.0
  outer loop
    vertex 903.8442669806324 33.28513303895098 12.0
    vertex 908.194266980632 33.28513303895098 4.00741339852274e-29
    vertex 903.8442669806324 33.28513303895098 4.00741339852274e-29
  endloop
endfacet
facet normal 0.0 1.0 0.0
  outer loop
    vertex 908.194266980632 33.28513303895098 4.00741339852274e-29
    vertex 903.8442669806324 33.28513303895098 12.0
    vertex 908.194266980632 33.28513303895098 12.0
  endloop
endfacet
facet normal 1.0 0.0 0.0
  outer loop
    vertex 901.4942669806322 22.38513303895098 4.00741339852274e-29
    vertex 901.4942669806322 18.48513303895101 12.0
    vertex 901.4942669806322 18.48513303895101 4.00741339852274e-29
  endloop
endfacet
facet normal 1.0 0.0 0.0
  outer loop
    vertex 901.4942669806322 18.48513303895101 12.0
    vertex 901.4942669806322 22.38513303895098 4.00741339852274e-29
    vertex 901.4942669806322 22.38513303895098 12.0
  endloop
endfacet
facet normal -1.0 0.0 0.0
  outer loop
    vertex 903.8442669806324 33.28513303895098 12.0
    vertex 903.8442669806324 31.335133038950975 4.00741339852274e-29
    vertex 903.8442669806324 31.335133038950975 12.0
  endloop
endfacet
facet normal -1.0 0.0 0.0
  outer loop
    vertex 903.8442669806324 31.335133038950975 4.00741339852274e-29
    vertex 903.8442669806324 33.28513303895098 12.0
    vertex 903.8442669806324 33.28513303895098 4.00741339852274e-29
  endloop
endfacet
facet normal 1.0 0.0 0.0
  outer loop
    vertex 885.5292669806321 33.63513303895095 4.00741339852274e-29
    vertex 885.5292669806321 18.685133038950962 12.0
    vertex 885.5292669806321 18.685133038950962 4.00741339852274e-29
  endloop
endfacet
facet normal 1.0 0.0 0.0
  outer loop
    vertex 885.5292669806321 18.685133038950962 12.0
    vertex 885.5292669806321 33.63513303895095 4.00741339852274e-29
    vertex 885.5292669806321 33.63513303895095 12.0
  endloop
endfacet
facet normal -0.0 -1.0 -0.0
  outer loop
    vertex 893.7792669806321 22.185133038950934 12.0
    vertex 891.8292669806322 22.185133038950934 4.00741339852274e-29
    vertex 893.7792669806321 22.185133038950934 4.00741339852274e-29
  endloop
endfacet
facet normal -0.0 -1.0 -0.0
  outer loop
    vertex 891.8292669806322 22.185133038950934 4.00741339852274e-29
    vertex 893.7792669806321 22.185133038950934 12.0
    vertex 891.8292669806322 22.185133038950934 12.0
  endloop
endfacet
facet normal 0.0 1.0 0.0
  outer loop
    vertex 901.4942669806322 18.48513303895101 12.0
    vertex 910.1442669806323 18.48513303895101 4.00741339852274e-29
    vertex 901.4942669806322 18.48513303895101 4.00741339852274e-29
  endloop
endfacet
facet normal 0.0 1.0 0.0
  outer loop
    vertex 910.1442669806323 18.48513303895101 4.00741339852274e-29
    vertex 901.4942669806322 18.48513303895101 12.0
    vertex 910.1442669806323 18.48513303895101 12.0
  endloop
endfacet
facet normal -1.0 0.0 0.0
  outer loop
    vertex 874.729266980632 47.58513303895098 12.0
    vertex 874.729266980632 41.93513303895095 4.00741339852274e-29
    vertex 874.729266980632 41.93513303895095 12.0
  endloop
endfacet
facet normal -1.0 0.0 0.0
  outer loop
    vertex 874.729266980632 41.93513303895095 4.00741339852274e-29
    vertex 874.729266980632 47.58513303895098 12.0
    vertex 874.729266980632 47.58513303895098 4.00741339852274e-29
  endloop
endfacet
facet normal 1.0 0.0 0.0
  outer loop
    vertex 901.4942669806322 35.23513303895099 4.00741339852274e-29
    vertex 901.4942669806322 31.335133038950975 12.0
    vertex 901.4942669806322 31.335133038950975 4.00741339852274e-29
  endloop
endfacet
facet normal 1.0 0.0 0.0
  outer loop
    vertex 901.4942669806322 31.335133038950975 12.0
    vertex 901.4942669806322 35.23513303895099 4.00741339852274e-29
    vertex 901.4942669806322 35.23513303895099 12.0
  endloop
endfacet
facet normal -0.0 -1.0 -0.0
  outer loop
    vertex 903.8442669806324 22.38513303895098 12.0
    vertex 901.4942669806322 22.38513303895098 4.00741339852274e-29
    vertex 903.8442669806324 22.38513303895098 4.00741339852274e-29
  endloop
endfacet
facet normal -0.0 -1.0 -0.0
  outer loop
    vertex 901.4942669806322 22.38513303895098 4.00741339852274e-29
    vertex 903.8442669806324 22.38513303895098 12.0
    vertex 901.4942669806322 22.38513303895098 12.0
  endloop
endfacet
facet normal -1.0 0.0 0.0
  outer loop
    vertex 887.0792669806322 33.485133038950934 12.0
    vertex 887.0792669806322 20.235133038950927 4.00741339852274e-29
    vertex 887.0792669806322 20.235133038950927 12.0
  endloop
endfacet
facet normal -1.0 0.0 0.0
  outer loop
    vertex 887.0792669806322 20.235133038950927 4.00741339852274e-29
    vertex 887.0792669806322 33.485133038950934 12.0
    vertex 887.0792669806322 33.485133038950934 4.00741339852274e-29
  endloop
endfacet
facet normal 0.0 1.0 0.0
  outer loop
    vertex 901.4942669806322 31.335133038950975 12.0
    vertex 903.8442669806324 31.335133038950975 4.00741339852274e-29
    vertex 901.4942669806322 31.335133038950975 4.00741339852274e-29
  endloop
endfacet
facet normal 0.0 1.0 0.0
  outer loop
    vertex 903.8442669806324 31.335133038950975 4.00741339852274e-29
    vertex 901.4942669806322 31.335133038950975 12.0
    vertex 903.8442669806324 31.335133038950975 12.0
  endloop
endfacet
facet normal 0.0 1.0 0.0
  outer loop
    vertex 874.829266980632 33.63513303895095 12.0
    vertex 885.5292669806321 33.63513303895095 4.00741339852274e-29
    vertex 874.829266980632 33.63513303895095 4.00741339852274e-29
  endloop
endfacet
facet normal 0.0 1.0 0.0
  outer loop
    vertex 885.5292669806321 33.63513303895095 4.00741339852274e-29
    vertex 874.829266980632 33.63513303895095 12.0
    vertex 885.5292669806321 33.63513303895095 12.0
  endloop
endfacet
facet normal 0.0 1.0 0.0
  outer loop
    vertex 872.729266980632 27.985133038950924 12.0
    vertex 874.829266980632 27.985133038950924 4.00741339852274e-29
    vertex 872.729266980632 27.985133038950924 4.00741339852274e-29
  endloop
endfacet
facet normal 0.0 1.0 0.0
  outer loop
    vertex 874.829266980632 27.985133038950924 4.00741339852274e-29
    vertex 872.729266980632 27.985133038950924 12.0
    vertex 874.829266980632 27.985133038950924 12.0
  endloop
endfacet
facet normal -1.0 0.0 0.0
  outer loop
    vertex 893.7792669806321 22.185133038950934 12.0
    vertex 893.7792669806321 18.685133038950962 4.00741339852274e-29
    vertex 893.7792669806321 18.685133038950962 12.0
  endloop
endfacet
facet normal -1.0 0.0 0.0
  outer loop
    vertex 893.7792669806321 18.685133038950962 4.00741339852274e-29
    vertex 893.7792669806321 22.185133038950934 12.0
    vertex 893.7792669806321 22.185133038950934 4.00741339852274e-29
  endloop
endfacet
facet normal -0.0 -1.0 -0.0
  outer loop
    vertex 891.8292669806322 20.235133038950927 12.0
    vertex 887.0792669806322 20.235133038950927 4.00741339852274e-29
    vertex 891.8292669806322 20.235133038950927 4.00741339852274e-29
  endloop
endfacet
facet normal -0.0 -1.0 -0.0
  outer loop
    vertex 887.0792669806322 20.235133038950927 4.00741339852274e-29
    vertex 891.8292669806322 20.235133038950927 12.0
    vertex 887.0792669806322 20.235133038950927 12.0
  endloop
endfacet
facet normal 1.0 0.0 0.0
  outer loop
    vertex 885.6292669806321 56.88513303895094 4.00741339852274e-29
    vertex 885.6292669806321 41.93513303895095 12.0
    vertex 885.6292669806321 41.93513303895095 4.00741339852274e-29
  endloop
endfacet
facet normal 1.0 0.0 0.0
  outer loop
    vertex 885.6292669806321 41.93513303895095 12.0
    vertex 885.6292669806321 56.88513303895094 4.00741339852274e-29
    vertex 885.6292669806321 56.88513303895094 12.0
  endloop
endfacet
facet normal -0.0 -1.0 -0.0
  outer loop
    vertex 908.194266980632 20.435133038950973 12.0
    vertex 903.8442669806324 20.435133038950973 4.00741339852274e-29
    vertex 908.194266980632 20.435133038950973 4.00741339852274e-29
  endloop
endfacet
facet normal -0.0 -1.0 -0.0
  outer loop
    vertex 903.8442669806324 20.435133038950973 4.00741339852274e-29
    vertex 908.194266980632 20.435133038950973 12.0
    vertex 903.8442669806324 20.435133038950973 12.0
  endloop
endfacet
facet normal -1.0 0.0 0.0
  outer loop
    vertex 874.829266980632 33.63513303895095 12.0
    vertex 874.829266980632 27.985133038950924 4.00741339852274e-29
    vertex 874.829266980632 27.985133038950924 12.0
  endloop
endfacet
facet normal -1.0 0.0 0.0
  outer loop
    vertex 874.829266980632 27.985133038950924 4.00741339852274e-29
    vertex 874.829266980632 33.63513303895095 12.0
    vertex 874.829266980632 33.63513303895095 4.00741339852274e-29
  endloop
endfacet
facet normal -0.0 -1.0 -0.0
  outer loop
    vertex 922.9442669806324 35.23513303895099 12.0
    vertex 901.4942669806322 35.23513303895099 4.00741339852274e-29
    vertex 922.9442669806324 35.23513303895099 4.00741339852274e-29
  endloop
endfacet
facet normal -0.0 -1.0 -0.0
  outer loop
    vertex 901.4942669806322 35.23513303895099 4.00741339852274e-29
    vertex 922.9442669806324 35.23513303895099 12.0
    vertex 901.4942669806322 35.23513303895099 12.0
  endloop
endfacet
facet normal 1.0 0.0 0.0
  outer loop
    vertex 920.4442669806322 33.435133038950994 4.00741339852274e-29
    vertex 920.4442669806322 27.78513303895097 12.0
    vertex 920.4442669806322 27.78513303895097 4.00741339852274e-29
  endloop
endfacet
facet normal 1.0 0.0 0.0
  outer loop
    vertex 920.4442669806322 27.78513303895097 12.0
    vertex 920.4442669806322 33.435133038950994 4.00741339852274e-29
    vertex 920.4442669806322 33.435133038950994 12.0
  endloop
endfacet
facet normal -1.0 0.0 0.0
  outer loop
    vertex 922.9442669806324 35.23513303895099 12.0
    vertex 922.9442669806324 27.78513303895097 4.00741339852274e-29
    vertex 922.9442669806324 27.78513303895097 12.0
  endloop
endfacet
facet normal -1.0 0.0 0.0
  outer loop
    vertex 922.9442669806324 27.78513303895097 4.00741339852274e-29
    vertex 922.9442669806324 35.23513303895099 12.0
    vertex 922.9442669806324 35.23513303895099 4.00741339852274e-29
  endloop
endfacet
facet normal 0.0 1.0 0.0
  outer loop
    vertex 920.4442669806322 27.78513303895097 12.0
    vertex 922.9442669806324 27.78513303895097 4.00741339852274e-29
    vertex 920.4442669806322 27.78513303895097 4.00741339852274e-29
  endloop
endfacet
facet normal 0.0 1.0 0.0
  outer loop
    vertex 922.9442669806324 27.78513303895097 4.00741339852274e-29
    vertex 920.4442669806322 27.78513303895097 12.0
    vertex 922.9442669806324 27.78513303895097 12.0
  endloop
endfacet
facet normal -1.0 0.0 0.0
  outer loop
    vertex 910.1442669806323 33.435133038950994 12.0
    vertex 910.1442669806323 18.48513303895101 4.00741339852274e-29
    vertex 910.1442669806323 18.48513303895101 12.0
  endloop
endfacet
facet normal -1.0 0.0 0.0
  outer loop
    vertex 910.1442669806323 18.48513303895101 4.00741339852274e-29
    vertex 910.1442669806323 33.435133038950994 12.0
    vertex 910.1442669806323 33.435133038950994 4.00741339852274e-29
  endloop
endfacet
facet normal 0.0 1.0 0.0
  outer loop
    vertex 910.1442669806323 33.435133038950994 12.0
    vertex 920.4442669806322 33.435133038950994 4.00741339852274e-29
    vertex 910.1442669806323 33.435133038950994 4.00741339852274e-29
  endloop
endfacet
facet normal 0.0 1.0 0.0
  outer loop
    vertex 920.4442669806322 33.435133038950994 4.00741339852274e-29
    vertex 910.1442669806323 33.435133038950994 12.0
    vertex 920.4442669806322 33.435133038950994 12.0
  endloop
endfacet
facet normal 0.0 0.0 1.0
  outer loop
    vertex 908.194266980632 20.435133038950973 4.00741339852274e-29
    vertex 903.8442669806324 22.38513303895098 4.00741339852274e-29
    vertex 903.8442669806324 20.435133038950973 4.00741339852274e-29
  endloop
endfacet
facet normal 0.0 0.0 1.0
  outer loop
    vertex 903.8442669806324 22.38513303895098 4.00741339852274e-29
    vertex 908.194266980632 20.435133038950973 4.00741339852274e-29
    vertex 903.8442669806324 31.335133038950975 4.00741339852274e-29
  endloop
endfacet
facet normal 0.0 0.0 1.0
  outer loop
    vertex 903.8442669806324 31.335133038950975 4.00741339852274e-29
    vertex 908.194266980632 20.435133038950973 4.00741339852274e-29
    vertex 903.8442669806324 33.28513303895098 4.00741339852274e-29
  endloop
endfacet
facet normal 0.0 0.0 1.0
  outer loop
    vertex 903.8442669806324 33.28513303895098 4.00741339852274e-29
    vertex 908.194266980632 20.435133038950973 4.00741339852274e-29
    vertex 908.194266980632 33.28513303895098 4.00741339852274e-29
  endloop
endfacet
facet normal 0.0 0.0 1.0
  outer loop
    vertex 903.8442669806324 22.38513303895098 4.00741339852274e-29
    vertex 901.4942669806322 31.335133038950975 4.00741339852274e-29
    vertex 901.4942669806322 22.38513303895098 4.00741339852274e-29
  endloop
endfacet
facet normal 0.0 0.0 1.0
  outer loop
    vertex 901.4942669806322 31.335133038950975 4.00741339852274e-29
    vertex 903.8442669806324 22.38513303895098 4.00741339852274e-29
    vertex 903.8442669806324 31.335133038950975 4.00741339852274e-29
  endloop
endfacet
facet normal 0.0 0.0 1.0
  outer loop
    vertex 866.3228706055293 12.826040274133845 4.00741339852274e-29
    vertex 872.729266980632 27.985133038950924 4.00741339852274e-29
    vertex 866.3228706055293 63.75404027413382 4.00741339852274e-29
  endloop
endfacet
facet normal 0.0 0.0 1.0
  outer loop
    vertex 872.729266980632 27.985133038950924 4.00741339852274e-29
    vertex 866.3228706055293 12.826040274133845 4.00741339852274e-29
    vertex 885.5292669806321 18.685133038950962 4.00741339852274e-29
  endloop
endfacet
facet normal 0.0 0.0 1.0
  outer loop
    vertex 885.5292669806321 18.685133038950962 4.00741339852274e-29
    vertex 866.3228706055293 12.826040274133845 4.00741339852274e-29
    vertex 930.7468706055291 12.826040274133845 4.00741339852274e-29
  endloop
endfacet
facet normal 0.0 0.0 1.0
  outer loop
    vertex 872.729266980632 27.985133038950924 4.00741339852274e-29
    vertex 885.5292669806321 18.685133038950962 4.00741339852274e-29
    vertex 874.829266980632 27.985133038950924 4.00741339852274e-29
  endloop
endfacet
facet normal 0.0 0.0 1.0
  outer loop
    vertex 874.829266980632 27.985133038950924 4.00741339852274e-29
    vertex 885.5292669806321 18.685133038950962 4.00741339852274e-29
    vertex 874.829266980632 33.63513303895095 4.00741339852274e-29
  endloop
endfacet
facet normal 0.0 0.0 1.0
  outer loop
    vertex 885.5292669806321 18.685133038950962 4.00741339852274e-29
    vertex 930.7468706055291 12.826040274133845 4.00741339852274e-29
    vertex 893.7792669806321 18.685133038950962 4.00741339852274e-29
  endloop
endfacet
facet normal 0.0 0.0 1.0
  outer loop
    vertex 893.7792669806321 18.685133038950962 4.00741339852274e-29
    vertex 930.7468706055291 12.826040274133845 4.00741339852274e-29
    vertex 901.4942669806322 18.48513303895101 4.00741339852274e-29
  endloop
endfacet
facet normal 0.0 0.0 1.0
  outer loop
    vertex 893.7792669806321 18.685133038950962 4.00741339852274e-29
    vertex 901.4942669806322 18.48513303895101 4.00741339852274e-29
    vertex 893.7792669806321 22.185133038950934 4.00741339852274e-29
  endloop
endfacet
facet normal 0.0 0.0 1.0
  outer loop
    vertex 893.7792669806321 22.185133038950934 4.00741339852274e-29
    vertex 901.4942669806322 18.48513303895101 4.00741339852274e-29
    vertex 893.7792669806321 31.535133038950928 4.00741339852274e-29
  endloop
endfacet
facet normal 0.0 0.0 1.0
  outer loop
    vertex 893.7792669806321 31.535133038950928 4.00741339852274e-29
    vertex 901.4942669806322 18.48513303895101 4.00741339852274e-29
    vertex 893.7792669806321 35.035133038950946 4.00741339852274e-29
  endloop
endfacet
facet normal 0.0 0.0 1.0
  outer loop
    vertex 893.7792669806321 35.035133038950946 4.00741339852274e-29
    vertex 901.4942669806322 18.48513303895101 4.00741339852274e-29
    vertex 901.2942669806318 40.235133038950934 4.00741339852274e-29
  endloop
endfacet
facet normal 0.0 0.0 1.0
  outer loop
    vertex 901.4942669806322 18.48513303895101 4.00741339852274e-29
    vertex 930.7468706055291 12.826040274133845 4.00741339852274e-29
    vertex 910.1442669806323 18.48513303895101 4.00741339852274e-29
  endloop
endfacet
facet normal 0.0 0.0 1.0
  outer loop
    vertex 910.1442669806323 18.48513303895101 4.00741339852274e-29
    vertex 930.7468706055291 12.826040274133845 4.00741339852274e-29
    vertex 910.1442669806323 33.435133038950994 4.00741339852274e-29
  endloop
endfacet
facet normal 0.0 0.0 1.0
  outer loop
    vertex 910.1442669806323 33.435133038950994 4.00741339852274e-29
    vertex 930.7468706055291 12.826040274133845 4.00741339852274e-29
    vertex 920.4442669806322 27.78513303895097 4.00741339852274e-29
  endloop
endfacet
facet normal 0.0 0.0 1.0
  outer loop
    vertex 920.4442669806322 27.78513303895097 4.00741339852274e-29
    vertex 930.7468706055291 12.826040274133845 4.00741339852274e-29
    vertex 922.9442669806324 27.78513303895097 4.00741339852274e-29
  endloop
endfacet
facet normal 0.0 0.0 1.0
  outer loop
    vertex 922.9442669806324 27.78513303895097 4.00741339852274e-29
    vertex 930.7468706055291 12.826040274133845 4.00741339852274e-29
    vertex 922.9442669806324 35.23513303895099 4.00741339852274e-29
  endloop
endfacet
facet normal 0.0 0.0 1.0
  outer loop
    vertex 922.9442669806324 35.23513303895099 4.00741339852274e-29
    vertex 930.7468706055291 12.826040274133845 4.00741339852274e-29
    vertex 923.144266980632 40.235133038950934 4.00741339852274e-29
  endloop
endfacet
facet normal 0.0 0.0 1.0
  outer loop
    vertex 923.144266980632 40.235133038950934 4.00741339852274e-29
    vertex 930.7468706055291 12.826040274133845 4.00741339852274e-29
    vertex 923.144266980632 48.08513303895096 4.00741339852274e-29
  endloop
endfacet
facet normal 0.0 0.0 1.0
  outer loop
    vertex 866.3228706055293 63.75404027413382 4.00741339852274e-29
    vertex 885.6292669806321 56.88513303895094 4.00741339852274e-29
    vertex 930.7468706055291 63.75404027413382 4.00741339852274e-29
  endloop
endfacet
facet normal 0.0 0.0 1.0
  outer loop
    vertex 885.6292669806321 56.88513303895094 4.00741339852274e-29
    vertex 866.3228706055293 63.75404027413382 4.00741339852274e-29
    vertex 872.8292669806319 47.58513303895098 4.00741339852274e-29
  endloop
endfacet
facet normal 0.0 0.0 1.0
  outer loop
    vertex 872.8292669806319 47.58513303895098 4.00741339852274e-29
    vertex 866.3228706055293 63.75404027413382 4.00741339852274e-29
    vertex 872.729266980632 35.035133038950946 4.00741339852274e-29
  endloop
endfacet
facet normal 0.0 0.0 1.0
  outer loop
    vertex 872.729266980632 35.035133038950946 4.00741339852274e-29
    vertex 866.3228706055293 63.75404027413382 4.00741339852274e-29
    vertex 872.729266980632 27.985133038950924 4.00741339852274e-29
  endloop
endfacet
facet normal 0.0 0.0 1.0
  outer loop
    vertex 872.8292669806319 47.58513303895098 4.00741339852274e-29
    vertex 872.729266980632 35.035133038950946 4.00741339852274e-29
    vertex 872.8292669806319 40.73513303895091 4.00741339852274e-29
  endloop
endfacet
facet normal 0.0 0.0 1.0
  outer loop
    vertex 885.6292669806321 56.88513303895094 4.00741339852274e-29
    vertex 872.8292669806319 47.58513303895098 4.00741339852274e-29
    vertex 874.729266980632 47.58513303895098 4.00741339852274e-29
  endloop
endfacet
facet normal 0.0 0.0 1.0
  outer loop
    vertex 885.6292669806321 56.88513303895094 4.00741339852274e-29
    vertex 874.729266980632 47.58513303895098 4.00741339852274e-29
    vertex 885.6292669806321 41.93513303895095 4.00741339852274e-29
  endloop
endfacet
facet normal 0.0 0.0 1.0
  outer loop
    vertex 930.7468706055291 63.75404027413382 4.00741339852274e-29
    vertex 885.6292669806321 56.88513303895094 4.00741339852274e-29
    vertex 893.6792669806321 56.88513303895094 4.00741339852274e-29
  endloop
endfacet
facet normal 0.0 0.0 1.0
  outer loop
    vertex 930.7468706055291 63.75404027413382 4.00741339852274e-29
    vertex 893.6792669806321 56.88513303895094 4.00741339852274e-29
    vertex 901.2942669806318 57.38513303895091 4.00741339852274e-29
  endloop
endfacet
facet normal 0.0 0.0 1.0
  outer loop
    vertex 901.2942669806318 57.38513303895091 4.00741339852274e-29
    vertex 893.6792669806321 56.88513303895094 4.00741339852274e-29
    vertex 893.7792669806321 35.035133038950946 4.00741339852274e-29
  endloop
endfacet
facet normal 0.0 0.0 1.0
  outer loop
    vertex 901.2942669806318 57.38513303895091 4.00741339852274e-29
    vertex 893.7792669806321 35.035133038950946 4.00741339852274e-29
    vertex 901.2942669806318 40.235133038950934 4.00741339852274e-29
  endloop
endfacet
facet normal 0.0 0.0 1.0
  outer loop
    vertex 901.2942669806318 57.38513303895091 4.00741339852274e-29
    vertex 901.2942669806318 40.235133038950934 4.00741339852274e-29
    vertex 901.2942669806318 44.53513303895095 4.00741339852274e-29
  endloop
endfacet
facet normal 0.0 0.0 1.0
  outer loop
    vertex 901.2942669806318 57.38513303895091 4.00741339852274e-29
    vertex 901.2942669806318 44.53513303895095 4.00741339852274e-29
    vertex 901.2942669806318 53.08513303895094 4.00741339852274e-29
  endloop
endfacet
facet normal 0.0 0.0 1.0
  outer loop
    vertex 930.7468706055291 63.75404027413382 4.00741339852274e-29
    vertex 901.2942669806318 57.38513303895091 4.00741339852274e-29
    vertex 910.344266980632 57.38513303895091 4.00741339852274e-29
  endloop
endfacet
facet normal 0.0 0.0 1.0
  outer loop
    vertex 930.7468706055291 63.75404027413382 4.00741339852274e-29
    vertex 910.344266980632 57.38513303895091 4.00741339852274e-29
    vertex 920.2442669806319 48.08513303895096 4.00741339852274e-29
  endloop
endfacet
facet normal 0.0 0.0 1.0
  outer loop
    vertex 920.2442669806319 48.08513303895096 4.00741339852274e-29
    vertex 910.344266980632 57.38513303895091 4.00741339852274e-29
    vertex 920.2442669806319 42.43513303895093 4.00741339852274e-29
  endloop
endfacet
facet normal 0.0 0.0 1.0
  outer loop
    vertex 930.7468706055291 63.75404027413382 4.00741339852274e-29
    vertex 920.2442669806319 48.08513303895096 4.00741339852274e-29
    vertex 923.144266980632 48.08513303895096 4.00741339852274e-29
  endloop
endfacet
facet normal 0.0 0.0 1.0
  outer loop
    vertex 930.7468706055291 63.75404027413382 4.00741339852274e-29
    vertex 923.144266980632 48.08513303895096 4.00741339852274e-29
    vertex 930.7468706055291 12.826040274133845 4.00741339852274e-29
  endloop
endfacet
facet normal 0.0 0.0 1.0
  outer loop
    vertex 901.2942669806318 40.235133038950934 4.00741339852274e-29
    vertex 901.4942669806322 35.23513303895099 4.00741339852274e-29
    vertex 923.144266980632 40.235133038950934 4.00741339852274e-29
  endloop
endfacet
facet normal 0.0 0.0 1.0
  outer loop
    vertex 901.4942669806322 35.23513303895099 4.00741339852274e-29
    vertex 901.2942669806318 40.235133038950934 4.00741339852274e-29
    vertex 901.4942669806322 18.48513303895101 4.00741339852274e-29
  endloop
endfacet
facet normal 0.0 0.0 1.0
  outer loop
    vertex 901.4942669806322 35.23513303895099 4.00741339852274e-29
    vertex 901.4942669806322 18.48513303895101 4.00741339852274e-29
    vertex 901.4942669806322 22.38513303895098 4.00741339852274e-29
  endloop
endfacet
facet normal 0.0 0.0 1.0
  outer loop
    vertex 901.4942669806322 35.23513303895099 4.00741339852274e-29
    vertex 901.4942669806322 22.38513303895098 4.00741339852274e-29
    vertex 901.4942669806322 31.335133038950975 4.00741339852274e-29
  endloop
endfacet
facet normal 0.0 0.0 1.0
  outer loop
    vertex 923.144266980632 40.235133038950934 4.00741339852274e-29
    vertex 901.4942669806322 35.23513303895099 4.00741339852274e-29
    vertex 922.9442669806324 35.23513303895099 4.00741339852274e-29
  endloop
endfacet
facet normal 0.0 0.0 1.0
  outer loop
    vertex 920.4442669806322 33.435133038950994 4.00741339852274e-29
    vertex 910.1442669806323 33.435133038950994 4.00741339852274e-29
    vertex 920.4442669806322 27.78513303895097 4.00741339852274e-29
  endloop
endfacet
facet normal 0.0 0.0 1.0
  outer loop
    vertex 920.2442669806319 42.43513303895093 4.00741339852274e-29
    vertex 910.344266980632 57.38513303895091 4.00741339852274e-29
    vertex 910.344266980632 42.43513303895093 4.00741339852274e-29
  endloop
endfacet
facet normal 0.0 0.0 1.0
  outer loop
    vertex 893.7792669806321 35.035133038950946 4.00741339852274e-29
    vertex 872.8292669806319 40.73513303895091 4.00741339852274e-29
    vertex 872.729266980632 35.035133038950946 4.00741339852274e-29
  endloop
endfacet
facet normal 0.0 0.0 1.0
  outer loop
    vertex 872.8292669806319 40.73513303895091 4.00741339852274e-29
    vertex 893.7792669806321 35.035133038950946 4.00741339852274e-29
    vertex 893.6792669806321 40.73513303895091 4.00741339852274e-29
  endloop
endfacet
facet normal 0.0 0.0 1.0
  outer loop
    vertex 893.6792669806321 40.73513303895091 4.00741339852274e-29
    vertex 893.7792669806321 35.035133038950946 4.00741339852274e-29
    vertex 893.6792669806321 44.035133038950974 4.00741339852274e-29
  endloop
endfacet
facet normal 0.0 0.0 1.0
  outer loop
    vertex 893.6792669806321 44.035133038950974 4.00741339852274e-29
    vertex 893.7792669806321 35.035133038950946 4.00741339852274e-29
    vertex 893.6792669806321 53.58513303895092 4.00741339852274e-29
  endloop
endfacet
facet normal 0.0 0.0 1.0
  outer loop
    vertex 893.6792669806321 53.58513303895092 4.00741339852274e-29
    vertex 893.7792669806321 35.035133038950946 4.00741339852274e-29
    vertex 893.6792669806321 56.88513303895094 4.00741339852274e-29
  endloop
endfacet
facet normal 0.0 0.0 1.0
  outer loop
    vertex 907.9942669806318 42.58513303895094 4.00741339852274e-29
    vertex 904.044266980632 44.53513303895095 4.00741339852274e-29
    vertex 904.044266980632 42.58513303895094 4.00741339852274e-29
  endloop
endfacet
facet normal 0.0 0.0 1.0
  outer loop
    vertex 904.044266980632 44.53513303895095 4.00741339852274e-29
    vertex 907.9942669806318 42.58513303895094 4.00741339852274e-29
    vertex 904.044266980632 53.08513303895094 4.00741339852274e-29
  endloop
endfacet
facet normal 0.0 0.0 1.0
  outer loop
    vertex 904.044266980632 53.08513303895094 4.00741339852274e-29
    vertex 907.9942669806318 42.58513303895094 4.00741339852274e-29
    vertex 904.044266980632 55.03513303895095 4.00741339852274e-29
  endloop
endfacet
facet normal 0.0 0.0 1.0
  outer loop
    vertex 904.044266980632 55.03513303895095 4.00741339852274e-29
    vertex 907.9942669806318 42.58513303895094 4.00741339852274e-29
    vertex 907.9942669806321 55.03513303895095 4.00741339852274e-29
  endloop
endfacet
facet normal 0.0 0.0 1.0
  outer loop
    vertex 904.044266980632 44.53513303895095 4.00741339852274e-29
    vertex 901.2942669806318 53.08513303895094 4.00741339852274e-29
    vertex 901.2942669806318 44.53513303895095 4.00741339852274e-29
  endloop
endfacet
facet normal 0.0 0.0 1.0
  outer loop
    vertex 901.2942669806318 53.08513303895094 4.00741339852274e-29
    vertex 904.044266980632 44.53513303895095 4.00741339852274e-29
    vertex 904.044266980632 53.08513303895094 4.00741339852274e-29
  endloop
endfacet
facet normal 0.0 0.0 1.0
  outer loop
    vertex 893.7792669806321 22.185133038950934 4.00741339852274e-29
    vertex 891.8292669806322 31.535133038950928 4.00741339852274e-29
    vertex 891.8292669806322 22.185133038950934 4.00741339852274e-29
  endloop
endfacet
facet normal 0.0 0.0 1.0
  outer loop
    vertex 891.8292669806322 31.535133038950928 4.00741339852274e-29
    vertex 893.7792669806321 22.185133038950934 4.00741339852274e-29
    vertex 893.7792669806321 31.535133038950928 4.00741339852274e-29
  endloop
endfacet
facet normal 0.0 0.0 1.0
  outer loop
    vertex 893.6792669806321 44.035133038950974 4.00741339852274e-29
    vertex 891.9292669806321 53.58513303895092 4.00741339852274e-29
    vertex 891.9292669806321 44.035133038950974 4.00741339852274e-29
  endloop
endfacet
facet normal 0.0 0.0 1.0
  outer loop
    vertex 891.9292669806321 53.58513303895092 4.00741339852274e-29
    vertex 893.6792669806321 44.035133038950974 4.00741339852274e-29
    vertex 893.6792669806321 53.58513303895092 4.00741339852274e-29
  endloop
endfacet
facet normal 0.0 0.0 1.0
  outer loop
    vertex 891.9292669806321 42.085133038950964 4.00741339852274e-29
    vertex 886.9792669806321 55.53513303895093 4.00741339852274e-29
    vertex 886.9792669806321 42.085133038950964 4.00741339852274e-29
  endloop
endfacet
facet normal 0.0 0.0 1.0
  outer loop
    vertex 886.9792669806321 55.53513303895093 4.00741339852274e-29
    vertex 891.9292669806321 42.085133038950964 4.00741339852274e-29
    vertex 891.9292669806321 55.53513303895093 4.00741339852274e-29
  endloop
endfacet
facet normal 0.0 0.0 1.0
  outer loop
    vertex 891.9292669806321 55.53513303895093 4.00741339852274e-29
    vertex 891.9292669806321 42.085133038950964 4.00741339852274e-29
    vertex 891.9292669806321 44.035133038950974 4.00741339852274e-29
  endloop
endfacet
facet normal 0.0 0.0 1.0
  outer loop
    vertex 891.9292669806321 55.53513303895093 4.00741339852274e-29
    vertex 891.9292669806321 44.035133038950974 4.00741339852274e-29
    vertex 891.9292669806321 53.58513303895092 4.00741339852274e-29
  endloop
endfacet
facet normal 0.0 0.0 1.0
  outer loop
    vertex 891.8292669806322 20.235133038950927 4.00741339852274e-29
    vertex 887.0792669806322 33.485133038950934 4.00741339852274e-29
    vertex 887.0792669806322 20.235133038950927 4.00741339852274e-29
  endloop
endfacet
facet normal 0.0 0.0 1.0
  outer loop
    vertex 887.0792669806322 33.485133038950934 4.00741339852274e-29
    vertex 891.8292669806322 20.235133038950927 4.00741339852274e-29
    vertex 891.8292669806322 33.485133038950934 4.00741339852274e-29
  endloop
endfacet
facet normal 0.0 0.0 1.0
  outer loop
    vertex 891.8292669806322 33.485133038950934 4.00741339852274e-29
    vertex 891.8292669806322 20.235133038950927 4.00741339852274e-29
    vertex 891.8292669806322 22.185133038950934 4.00741339852274e-29
  endloop
endfacet
facet normal 0.0 0.0 1.0
  outer loop
    vertex 891.8292669806322 33.485133038950934 4.00741339852274e-29
    vertex 891.8292669806322 22.185133038950934 4.00741339852274e-29
    vertex 891.8292669806322 31.535133038950928 4.00741339852274e-29
  endloop
endfacet
facet normal 0.0 0.0 1.0
  outer loop
    vertex 885.5292669806321 33.63513303895095 4.00741339852274e-29
    vertex 874.829266980632 33.63513303895095 4.00741339852274e-29
    vertex 885.5292669806321 18.685133038950962 4.00741339852274e-29
  endloop
endfacet
facet normal 0.0 0.0 1.0
  outer loop
    vertex 885.6292669806321 41.93513303895095 4.00741339852274e-29
    vertex 874.729266980632 47.58513303895098 4.00741339852274e-29
    vertex 874.729266980632 41.93513303895095 4.00741339852274e-29
  endloop
endfacet
facet normal 0.0 1.0 0.0
  outer loop
    vertex 866.3228706055293 63.75404027413382 12.0
    vertex 930.7468706055291 63.75404027413382 4.00741339852274e-29
    vertex 866.3228706055293 63.75404027413382 4.00741339852274e-29
  endloop
endfacet
facet normal 0.0 1.0 0.0
  outer loop
    vertex 930.7468706055291 63.75404027413382 4.00741339852274e-29
    vertex 866.3228706055293 63.75404027413382 12.0
    vertex 930.7468706055291 63.75404027413382 12.0
  endloop
endfacet
facet normal 0.0 0.0 1.0
  outer loop
    vertex 908.194266980632 20.435133038950973 12.0
    vertex 903.8442669806324 22.38513303895098 12.0
    vertex 903.8442669806324 20.435133038950973 12.0
  endloop
endfacet
facet normal 0.0 0.0 1.0
  outer loop
    vertex 903.8442669806324 22.38513303895098 12.0
    vertex 908.194266980632 20.435133038950973 12.0
    vertex 903.8442669806324 31.335133038950975 12.0
  endloop
endfacet
facet normal 0.0 0.0 1.0
  outer loop
    vertex 903.8442669806324 31.335133038950975 12.0
    vertex 908.194266980632 20.435133038950973 12.0
    vertex 903.8442669806324 33.28513303895098 12.0
  endloop
endfacet
facet normal 0.0 0.0 1.0
  outer loop
    vertex 903.8442669806324 33.28513303895098 12.0
    vertex 908.194266980632 20.435133038950973 12.0
    vertex 908.194266980632 33.28513303895098 12.0
  endloop
endfacet
facet normal 0.0 0.0 1.0
  outer loop
    vertex 903.8442669806324 22.38513303895098 12.0
    vertex 901.4942669806322 31.335133038950975 12.0
    vertex 901.4942669806322 22.38513303895098 12.0
  endloop
endfacet
facet normal 0.0 0.0 1.0
  outer loop
    vertex 901.4942669806322 31.335133038950975 12.0
    vertex 903.8442669806324 22.38513303895098 12.0
    vertex 903.8442669806324 31.335133038950975 12.0
  endloop
endfacet
facet normal 0.0 0.0 1.0
  outer loop
    vertex 866.3228706055293 12.826040274133845 12.0
    vertex 872.729266980632 27.985133038950924 12.0
    vertex 866.3228706055293 63.75404027413382 12.0
  endloop
endfacet
facet normal 0.0 0.0 1.0
  outer loop
    vertex 872.729266980632 27.985133038950924 12.0
    vertex 866.3228706055293 12.826040274133845 12.0
    vertex 885.5292669806321 18.685133038950962 12.0
  endloop
endfacet
facet normal 0.0 0.0 1.0
  outer loop
    vertex 885.5292669806321 18.685133038950962 12.0
    vertex 866.3228706055293 12.826040274133845 12.0
    vertex 930.7468706055291 12.826040274133845 12.0
  endloop
endfacet
facet normal 0.0 0.0 1.0
  outer loop
    vertex 872.729266980632 27.985133038950924 12.0
    vertex 885.5292669806321 18.685133038950962 12.0
    vertex 874.829266980632 27.985133038950924 12.0
  endloop
endfacet
facet normal 0.0 0.0 1.0
  outer loop
    vertex 874.829266980632 27.985133038950924 12.0
    vertex 885.5292669806321 18.685133038950962 12.0
    vertex 874.829266980632 33.63513303895095 12.0
  endloop
endfacet
facet normal 0.0 0.0 1.0
  outer loop
    vertex 885.5292669806321 18.685133038950962 12.0
    vertex 930.7468706055291 12.826040274133845 12.0
    vertex 893.7792669806321 18.685133038950962 12.0
  endloop
endfacet
facet normal 0.0 0.0 1.0
  outer loop
    vertex 893.7792669806321 18.685133038950962 12.0
    vertex 930.7468706055291 12.826040274133845 12.0
    vertex 901.4942669806322 18.48513303895101 12.0
  endloop
endfacet
facet normal 0.0 0.0 1.0
  outer loop
    vertex 893.7792669806321 18.685133038950962 12.0
    vertex 901.4942669806322 18.48513303895101 12.0
    vertex 893.7792669806321 22.185133038950934 12.0
  endloop
endfacet
facet normal 0.0 0.0 1.0
  outer loop
    vertex 893.7792669806321 22.185133038950934 12.0
    vertex 901.4942669806322 18.48513303895101 12.0
    vertex 893.7792669806321 31.535133038950928 12.0
  endloop
endfacet
facet normal 0.0 0.0 1.0
  outer loop
    vertex 893.7792669806321 31.535133038950928 12.0
    vertex 901.4942669806322 18.48513303895101 12.0
    vertex 893.7792669806321 35.035133038950946 12.0
  endloop
endfacet
facet normal 0.0 0.0 1.0
  outer loop
    vertex 893.7792669806321 35.035133038950946 12.0
    vertex 901.4942669806322 18.48513303895101 12.0
    vertex 901.2942669806318 40.235133038950934 12.0
  endloop
endfacet
facet normal 0.0 0.0 1.0
  outer loop
    vertex 901.4942669806322 18.48513303895101 12.0
    vertex 930.7468706055291 12.826040274133845 12.0
    vertex 910.1442669806323 18.48513303895101 12.0
  endloop
endfacet
facet normal 0.0 0.0 1.0
  outer loop
    vertex 910.1442669806323 18.48513303895101 12.0
    vertex 930.7468706055291 12.826040274133845 12.0
    vertex 910.1442669806323 33.435133038950994 12.0
  endloop
endfacet
facet normal 0.0 0.0 1.0
  outer loop
    vertex 910.1442669806323 33.435133038950994 12.0
    vertex 930.7468706055291 12.826040274133845 12.0
    vertex 920.4442669806322 27.78513303895097 12.0
  endloop
endfacet
facet normal 0.0 0.0 1.0
  outer loop
    vertex 920.4442669806322 27.78513303895097 12.0
    vertex 930.7468706055291 12.826040274133845 12.0
    vertex 922.9442669806324 27.78513303895097 12.0
  endloop
endfacet
facet normal 0.0 0.0 1.0
  outer loop
    vertex 922.9442669806324 27.78513303895097 12.0
    vertex 930.7468706055291 12.826040274133845 12.0
    vertex 922.9442669806324 35.23513303895099 12.0
  endloop
endfacet
facet normal 0.0 0.0 1.0
  outer loop
    vertex 922.9442669806324 35.23513303895099 12.0
    vertex 930.7468706055291 12.826040274133845 12.0
    vertex 923.144266980632 40.235133038950934 12.0
  endloop
endfacet
facet normal 0.0 0.0 1.0
  outer loop
    vertex 923.144266980632 40.235133038950934 12.0
    vertex 930.7468706055291 12.826040274133845 12.0
    vertex 923.144266980632 48.08513303895096 12.0
  endloop
endfacet
facet normal 0.0 0.0 1.0
  outer loop
    vertex 866.3228706055293 63.75404027413382 12.0
    vertex 885.6292669806321 56.88513303895094 12.0
    vertex 930.7468706055291 63.75404027413382 12.0
  endloop
endfacet
facet normal 0.0 0.0 1.0
  outer loop
    vertex 885.6292669806321 56.88513303895094 12.0
    vertex 866.3228706055293 63.75404027413382 12.0
    vertex 872.8292669806319 47.58513303895098 12.0
  endloop
endfacet
facet normal 0.0 0.0 1.0
  outer loop
    vertex 872.8292669806319 47.58513303895098 12.0
    vertex 866.3228706055293 63.75404027413382 12.0
    vertex 872.729266980632 35.035133038950946 12.0
  endloop
endfacet
facet normal 0.0 0.0 1.0
  outer loop
    vertex 872.729266980632 35.035133038950946 12.0
    vertex 866.3228706055293 63.75404027413382 12.0
    vertex 872.729266980632 27.985133038950924 12.0
  endloop
endfacet
facet normal 0.0 0.0 1.0
  outer loop
    vertex 872.8292669806319 47.58513303895098 12.0
    vertex 872.729266980632 35.035133038950946 12.0
    vertex 872.8292669806319 40.73513303895091 12.0
  endloop
endfacet
facet normal 0.0 0.0 1.0
  outer loop
    vertex 885.6292669806321 56.88513303895094 12.0
    vertex 872.8292669806319 47.58513303895098 12.0
    vertex 874.729266980632 47.58513303895098 12.0
  endloop
endfacet
facet normal 0.0 0.0 1.0
  outer loop
    vertex 885.6292669806321 56.88513303895094 12.0
    vertex 874.729266980632 47.58513303895098 12.0
    vertex 885.6292669806321 41.93513303895095 12.0
  endloop
endfacet
facet normal 0.0 0.0 1.0
  outer loop
    vertex 930.7468706055291 63.75404027413382 12.0
    vertex 885.6292669806321 56.88513303895094 12.0
    vertex 893.6792669806321 56.88513303895094 12.0
  endloop
endfacet
facet normal 0.0 0.0 1.0
  outer loop
    vertex 930.7468706055291 63.75404027413382 12.0
    vertex 893.6792669806321 56.88513303895094 12.0
    vertex 901.2942669806318 57.38513303895091 12.0
  endloop
endfacet
facet normal 0.0 0.0 1.0
  outer loop
    vertex 901.2942669806318 57.38513303895091 12.0
    vertex 893.6792669806321 56.88513303895094 12.0
    vertex 893.7792669806321 35.035133038950946 12.0
  endloop
endfacet
facet normal 0.0 0.0 1.0
  outer loop
    vertex 901.2942669806318 57.38513303895091 12.0
    vertex 893.7792669806321 35.035133038950946 12.0
    vertex 901.2942669806318 40.235133038950934 12.0
  endloop
endfacet
facet normal 0.0 0.0 1.0
  outer loop
    vertex 901.2942669806318 57.38513303895091 12.0
    vertex 901.2942669806318 40.235133038950934 12.0
    vertex 901.2942669806318 44.53513303895095 12.0
  endloop
endfacet
facet normal 0.0 0.0 1.0
  outer loop
    vertex 901.2942669806318 57.38513303895091 12.0
    vertex 901.2942669806318 44.53513303895095 12.0
    vertex 901.2942669806318 53.08513303895094 12.0
  endloop
endfacet
facet normal 0.0 0.0 1.0
  outer loop
    vertex 930.7468706055291 63.75404027413382 12.0
    vertex 901.2942669806318 57.38513303895091 12.0
    vertex 910.344266980632 57.38513303895091 12.0
  endloop
endfacet
facet normal 0.0 0.0 1.0
  outer loop
    vertex 930.7468706055291 63.75404027413382 12.0
    vertex 910.344266980632 57.38513303895091 12.0
    vertex 920.2442669806319 48.08513303895096 12.0
  endloop
endfacet
facet normal 0.0 0.0 1.0
  outer loop
    vertex 920.2442669806319 48.08513303895096 12.0
    vertex 910.344266980632 57.38513303895091 12.0
    vertex 920.2442669806319 42.43513303895093 12.0
  endloop
endfacet
facet normal 0.0 0.0 1.0
  outer loop
    vertex 930.7468706055291 63.75404027413382 12.0
    vertex 920.2442669806319 48.08513303895096 12.0
    vertex 923.144266980632 48.08513303895096 12.0
  endloop
endfacet
facet normal 0.0 0.0 1.0
  outer loop
    vertex 930.7468706055291 63.75404027413382 12.0
    vertex 923.144266980632 48.08513303895096 12.0
    vertex 930.7468706055291 12.826040274133845 12.0
  endloop
endfacet
facet normal 0.0 0.0 1.0
  outer loop
    vertex 901.2942669806318 40.235133038950934 12.0
    vertex 901.4942669806322 35.23513303895099 12.0
    vertex 923.144266980632 40.235133038950934 12.0
  endloop
endfacet
facet normal 0.0 0.0 1.0
  outer loop
    vertex 901.4942669806322 35.23513303895099 12.0
    vertex 901.2942669806318 40.235133038950934 12.0
    vertex 901.4942669806322 18.48513303895101 12.0
  endloop
endfacet
facet normal 0.0 0.0 1.0
  outer loop
    vertex 901.4942669806322 35.23513303895099 12.0
    vertex 901.4942669806322 18.48513303895101 12.0
    vertex 901.4942669806322 22.38513303895098 12.0
  endloop
endfacet
facet normal 0.0 0.0 1.0
  outer loop
    vertex 901.4942669806322 35.23513303895099 12.0
    vertex 901.4942669806322 22.38513303895098 12.0
    vertex 901.4942669806322 31.335133038950975 12.0
  endloop
endfacet
facet normal 0.0 0.0 1.0
  outer loop
    vertex 923.144266980632 40.235133038950934 12.0
    vertex 901.4942669806322 35.23513303895099 12.0
    vertex 922.9442669806324 35.23513303895099 12.0
  endloop
endfacet
facet normal 0.0 0.0 1.0
  outer loop
    vertex 920.4442669806322 33.435133038950994 12.0
    vertex 910.1442669806323 33.435133038950994 12.0
    vertex 920.4442669806322 27.78513303895097 12.0
  endloop
endfacet
facet normal 0.0 0.0 1.0
  outer loop
    vertex 920.2442669806319 42.43513303895093 12.0
    vertex 910.344266980632 57.38513303895091 12.0
    vertex 910.344266980632 42.43513303895093 12.0
  endloop
endfacet
facet normal 0.0 0.0 1.0
  outer loop
    vertex 893.7792669806321 35.035133038950946 12.0
    vertex 872.8292669806319 40.73513303895091 12.0
    vertex 872.729266980632 35.035133038950946 12.0
  endloop
endfacet
facet normal 0.0 0.0 1.0
  outer loop
    vertex 872.8292669806319 40.73513303895091 12.0
    vertex 893.7792669806321 35.035133038950946 12.0
    vertex 893.6792669806321 40.73513303895091 12.0
  endloop
endfacet
facet normal 0.0 0.0 1.0
  outer loop
    vertex 893.6792669806321 40.73513303895091 12.0
    vertex 893.7792669806321 35.035133038950946 12.0
    vertex 893.6792669806321 44.035133038950974 12.0
  endloop
endfacet
facet normal 0.0 0.0 1.0
  outer loop
    vertex 893.6792669806321 44.035133038950974 12.0
    vertex 893.7792669806321 35.035133038950946 12.0
    vertex 893.6792669806321 53.58513303895092 12.0
  endloop
endfacet
facet normal 0.0 0.0 1.0
  outer loop
    vertex 893.6792669806321 53.58513303895092 12.0
    vertex 893.7792669806321 35.035133038950946 12.0
    vertex 893.6792669806321 56.88513303895094 12.0
  endloop
endfacet
facet normal 0.0 0.0 1.0
  outer loop
    vertex 907.9942669806318 42.58513303895094 12.0
    vertex 904.044266980632 44.53513303895095 12.0
    vertex 904.044266980632 42.58513303895094 12.0
  endloop
endfacet
facet normal 0.0 0.0 1.0
  outer loop
    vertex 904.044266980632 44.53513303895095 12.0
    vertex 907.9942669806318 42.58513303895094 12.0
    vertex 904.044266980632 53.08513303895094 12.0
  endloop
endfacet
facet normal 0.0 0.0 1.0
  outer loop
    vertex 904.044266980632 53.08513303895094 12.0
    vertex 907.9942669806318 42.58513303895094 12.0
    vertex 904.044266980632 55.03513303895095 12.0
  endloop
endfacet
facet normal 0.0 0.0 1.0
  outer loop
    vertex 904.044266980632 55.03513303895095 12.0
    vertex 907.9942669806318 42.58513303895094 12.0
    vertex 907.9942669806321 55.03513303895095 12.0
  endloop
endfacet
facet normal 0.0 0.0 1.0
  outer loop
    vertex 904.044266980632 44.53513303895095 12.0
    vertex 901.2942669806318 53.08513303895094 12.0
    vertex 901.2942669806318 44.53513303895095 12.0
  endloop
endfacet
facet normal 0.0 0.0 1.0
  outer loop
    vertex 901.2942669806318 53.08513303895094 12.0
    vertex 904.044266980632 44.53513303895095 12.0
    vertex 904.044266980632 53.08513303895094 12.0
  endloop
endfacet
facet normal 0.0 0.0 1.0
  outer loop
    vertex 893.7792669806321 22.185133038950934 12.0
    vertex 891.8292669806322 31.535133038950928 12.0
    vertex 891.8292669806322 22.185133038950934 12.0
  endloop
endfacet
facet normal 0.0 0.0 1.0
  outer loop
    vertex 891.8292669806322 31.535133038950928 12.0
    vertex 893.7792669806321 22.185133038950934 12.0
    vertex 893.7792669806321 31.535133038950928 12.0
  endloop
endfacet
facet normal 0.0 0.0 1.0
  outer loop
    vertex 893.6792669806321 44.035133038950974 12.0
    vertex 891.9292669806321 53.58513303895092 12.0
    vertex 891.9292669806321 44.035133038950974 12.0
  endloop
endfacet
facet normal 0.0 0.0 1.0
  outer loop
    vertex 891.9292669806321 53.58513303895092 12.0
    vertex 893.6792669806321 44.035133038950974 12.0
    vertex 893.6792669806321 53.58513303895092 12.0
  endloop
endfacet
facet normal 0.0 0.0 1.0
  outer loop
    vertex 891.9292669806321 42.085133038950964 12.0
    vertex 886.9792669806321 55.53513303895093 12.0
    vertex 886.9792669806321 42.085133038950964 12.0
  endloop
endfacet
facet normal 0.0 0.0 1.0
  outer loop
    vertex 886.9792669806321 55.53513303895093 12.0
    vertex 891.9292669806321 42.085133038950964 12.0
    vertex 891.9292669806321 55.53513303895093 12.0
  endloop
endfacet
facet normal 0.0 0.0 1.0
  outer loop
    vertex 891.9292669806321 55.53513303895093 12.0
    vertex 891.9292669806321 42.085133038950964 12.0
    vertex 891.9292669806321 44.035133038950974 12.0
  endloop
endfacet
facet normal 0.0 0.0 1.0
  outer loop
    vertex 891.9292669806321 55.53513303895093 12.0
    vertex 891.9292669806321 44.035133038950974 12.0
    vertex 891.9292669806321 53.58513303895092 12.0
  endloop
endfacet
facet normal 0.0 0.0 1.0
  outer loop
    vertex 891.8292669806322 20.235133038950927 12.0
    vertex 887.0792669806322 33.485133038950934 12.0
    vertex 887.0792669806322 20.235133038950927 12.0
  endloop
endfacet
facet normal 0.0 0.0 1.0
  outer loop
    vertex 887.0792669806322 33.485133038950934 12.0
    vertex 891.8292669806322 20.235133038950927 12.0
    vertex 891.8292669806322 33.485133038950934 12.0
  endloop
endfacet
facet normal 0.0 0.0 1.0
  outer loop
    vertex 891.8292669806322 33.485133038950934 12.0
    vertex 891.8292669806322 20.235133038950927 12.0
    vertex 891.8292669806322 22.185133038950934 12.0
  endloop
endfacet
facet normal 0.0 0.0 1.0
  outer loop
    vertex 891.8292669806322 33.485133038950934 12.0
    vertex 891.8292669806322 22.185133038950934 12.0
    vertex 891.8292669806322 31.535133038950928 12.0
  endloop
endfacet
facet normal 0.0 0.0 1.0
  outer loop
    vertex 885.5292669806321 33.63513303895095 12.0
    vertex 874.829266980632 33.63513303895095 12.0
    vertex 885.5292669806321 18.685133038950962 12.0
  endloop
endfacet
facet normal 0.0 0.0 1.0
  outer loop
    vertex 885.6292669806321 41.93513303895095 12.0
    vertex 874.729266980632 47.58513303895098 12.0
    vertex 874.729266980632 41.93513303895095 12.0
  endloop
endfacet
facet normal 1.0 0.0 0.0
  outer loop
    vertex 930.7468706055291 63.75404027413382 4.00741339852274e-29
    vertex 930.7468706055291 12.826040274133845 12.0
    vertex 930.7468706055291 12.826040274133845 4.00741339852274e-29
  endloop
endfacet
facet normal 1.0 0.0 0.0
  outer loop
    vertex 930.7468706055291 12.826040274133845 12.0
    vertex 930.7468706055291 63.75404027413382 4.00741339852274e-29
    vertex 930.7468706055291 63.75404027413382 12.0
  endloop
endfacet
facet normal -0.0 -1.0 -0.0
  outer loop
    vertex 930.7468706055291 12.826040274133845 12.0
    vertex 866.3228706055293 12.826040274133845 4.00741339852274e-29
    vertex 930.7468706055291 12.826040274133845 4.00741339852274e-29
  endloop
endfacet
facet normal -0.0 -1.0 -0.0
  outer loop
    vertex 866.3228706055293 12.826040274133845 4.00741339852274e-29
    vertex 930.7468706055291 12.826040274133845 12.0
    vertex 866.3228706055293 12.826040274133845 12.0
  endloop
endfacet
facet normal -1.0 0.0 0.0
  outer loop
    vertex 866.3228706055293 63.75404027413382 12.0
    vertex 866.3228706055293 12.826040274133845 4.00741339852274e-29
    vertex 866.3228706055293 12.826040274133845 12.0
  endloop
endfacet
facet normal -1.0 0.0 0.0
  outer loop
    vertex 866.3228706055293 12.826040274133845 4.00741339852274e-29
    vertex 866.3228706055293 63.75404027413382 12.0
    vertex 866.3228706055293 63.75404027413382 4.00741339852274e-29
  endloop
endfacet
facet normal -1.0 0.0 0.0
  outer loop
    vertex 904.044266980632 55.03513303895095 12.0
    vertex 904.044266980632 53.08513303895094 4.00741339852274e-29
    vertex 904.044266980632 53.08513303895094 12.0
  endloop
endfacet
facet normal -1.0 0.0 0.0
  outer loop
    vertex 904.044266980632 53.08513303895094 4.00741339852274e-29
    vertex 904.044266980632 55.03513303895095 12.0
    vertex 904.044266980632 55.03513303895095 4.00741339852274e-29
  endloop
endfacet
facet normal 0.0 1.0 0.0
  outer loop
    vertex 904.044266980632 55.03513303895095 12.0
    vertex 907.9942669806321 55.03513303895095 4.00741339852274e-29
    vertex 904.044266980632 55.03513303895095 4.00741339852274e-29
  endloop
endfacet
facet normal 0.0 1.0 0.0
  outer loop
    vertex 907.9942669806321 55.03513303895095 4.00741339852274e-29
    vertex 904.044266980632 55.03513303895095 12.0
    vertex 907.9942669806321 55.03513303895095 12.0
  endloop
endfacet
facet normal 1.0 0.0 0.0
  outer loop
    vertex 901.2942669806318 44.53513303895095 4.00741339852274e-29
    vertex 901.2942669806318 40.235133038950934 12.0
    vertex 901.2942669806318 40.235133038950934 4.00741339852274e-29
  endloop
endfacet
facet normal 1.0 0.0 0.0
  outer loop
    vertex 901.2942669806318 40.235133038950934 12.0
    vertex 901.2942669806318 44.53513303895095 4.00741339852274e-29
    vertex 901.2942669806318 44.53513303895095 12.0
  endloop
endfacet
facet normal 0.0 1.0 0.0
  outer loop
    vertex 901.2942669806318 40.235133038950934 12.0
    vertex 923.144266980632 40.235133038950934 4.00741339852274e-29
    vertex 901.2942669806318 40.235133038950934 4.00741339852274e-29
  endloop
endfacet
facet normal 0.0 1.0 0.0
  outer loop
    vertex 923.144266980632 40.235133038950934 4.00741339852274e-29
    vertex 901.2942669806318 40.235133038950934 12.0
    vertex 923.144266980632 40.235133038950934 12.0
  endloop
endfacet
facet normal -1.0 0.0 0.0
  outer loop
    vertex 923.144266980632 48.08513303895096 12.0
    vertex 923.144266980632 40.235133038950934 4.00741339852274e-29
    vertex 923.144266980632 40.235133038950934 12.0
  endloop
endfacet
facet normal -1.0 0.0 0.0
  outer loop
    vertex 923.144266980632 40.235133038950934 4.00741339852274e-29
    vertex 923.144266980632 48.08513303895096 12.0
    vertex 923.144266980632 48.08513303895096 4.00741339852274e-29
  endloop
endfacet
facet normal 1.0 -2.8992426487239405e-14 0.0
  outer loop
    vertex 907.9942669806321 55.03513303895095 4.00741339852274e-29
    vertex 907.9942669806318 42.58513303895094 12.0
    vertex 907.9942669806318 42.58513303895094 4.00741339852274e-29
  endloop
endfacet
facet normal 1.0 -2.8992426487239405e-14 0.0
  outer loop
    vertex 907.9942669806318 42.58513303895094 12.0
    vertex 907.9942669806321 55.03513303895095 4.00741339852274e-29
    vertex 907.9942669806321 55.03513303895095 12.0
  endloop
endfacet
facet normal -0.0 -1.0 -0.0
  outer loop
    vertex 904.044266980632 44.53513303895095 12.0
    vertex 901.2942669806318 44.53513303895095 4.00741339852274e-29
    vertex 904.044266980632 44.53513303895095 4.00741339852274e-29
  endloop
endfacet
facet normal -0.0 -1.0 -0.0
  outer loop
    vertex 901.2942669806318 44.53513303895095 4.00741339852274e-29
    vertex 904.044266980632 44.53513303895095 12.0
    vertex 901.2942669806318 44.53513303895095 12.0
  endloop
endfacet
facet normal -1.0 0.0 0.0
  outer loop
    vertex 904.044266980632 44.53513303895095 12.0
    vertex 904.044266980632 42.58513303895094 4.00741339852274e-29
    vertex 904.044266980632 42.58513303895094 12.0
  endloop
endfacet
facet normal -1.0 0.0 0.0
  outer loop
    vertex 904.044266980632 42.58513303895094 4.00741339852274e-29
    vertex 904.044266980632 44.53513303895095 12.0
    vertex 904.044266980632 44.53513303895095 4.00741339852274e-29
  endloop
endfacet
facet normal -0.0 -1.0 -0.0
  outer loop
    vertex 923.144266980632 48.08513303895096 12.0
    vertex 920.2442669806319 48.08513303895096 4.00741339852274e-29
    vertex 923.144266980632 48.08513303895096 4.00741339852274e-29
  endloop
endfacet
facet normal -0.0 -1.0 -0.0
  outer loop
    vertex 920.2442669806319 48.08513303895096 4.00741339852274e-29
    vertex 923.144266980632 48.08513303895096 12.0
    vertex 920.2442669806319 48.08513303895096 12.0
  endloop
endfacet
facet normal -0.0 -1.0 -0.0
  outer loop
    vertex 907.9942669806318 42.58513303895094 12.0
    vertex 904.044266980632 42.58513303895094 4.00741339852274e-29
    vertex 907.9942669806318 42.58513303895094 4.00741339852274e-29
  endloop
endfacet
facet normal -0.0 -1.0 -0.0
  outer loop
    vertex 904.044266980632 42.58513303895094 4.00741339852274e-29
    vertex 907.9942669806318 42.58513303895094 12.0
    vertex 904.044266980632 42.58513303895094 12.0
  endloop
endfacet
facet normal 1.0 0.0 0.0
  outer loop
    vertex 920.2442669806319 48.08513303895096 4.00741339852274e-29
    vertex 920.2442669806319 42.43513303895093 12.0
    vertex 920.2442669806319 42.43513303895093 4.00741339852274e-29
  endloop
endfacet
facet normal 1.0 0.0 0.0
  outer loop
    vertex 920.2442669806319 42.43513303895093 12.0
    vertex 920.2442669806319 48.08513303895096 4.00741339852274e-29
    vertex 920.2442669806319 48.08513303895096 12.0
  endloop
endfacet
facet normal -0.0 -1.0 -0.0
  outer loop
    vertex 920.2442669806319 42.43513303895093 12.0
    vertex 910.344266980632 42.43513303895093 4.00741339852274e-29
    vertex 920.2442669806319 42.43513303895093 4.00741339852274e-29
  endloop
endfacet
facet normal -0.0 -1.0 -0.0
  outer loop
    vertex 910.344266980632 42.43513303895093 4.00741339852274e-29
    vertex 920.2442669806319 42.43513303895093 12.0
    vertex 910.344266980632 42.43513303895093 12.0
  endloop
endfacet
facet normal -1.0 0.0 0.0
  outer loop
    vertex 910.344266980632 57.38513303895091 12.0
    vertex 910.344266980632 42.43513303895093 4.00741339852274e-29
    vertex 910.344266980632 42.43513303895093 12.0
  endloop
endfacet
facet normal -1.0 0.0 0.0
  outer loop
    vertex 910.344266980632 42.43513303895093 4.00741339852274e-29
    vertex 910.344266980632 57.38513303895091 12.0
    vertex 910.344266980632 57.38513303895091 4.00741339852274e-29
  endloop
endfacet
facet normal -0.0 -1.0 -0.0
  outer loop
    vertex 910.344266980632 57.38513303895091 12.0
    vertex 901.2942669806318 57.38513303895091 4.00741339852274e-29
    vertex 910.344266980632 57.38513303895091 4.00741339852274e-29
  endloop
endfacet
facet normal -0.0 -1.0 -0.0
  outer loop
    vertex 901.2942669806318 57.38513303895091 4.00741339852274e-29
    vertex 910.344266980632 57.38513303895091 12.0
    vertex 901.2942669806318 57.38513303895091 12.0
  endloop
endfacet
facet normal 1.0 0.0 0.0
  outer loop
    vertex 901.2942669806318 57.38513303895091 4.00741339852274e-29
    vertex 901.2942669806318 53.08513303895094 12.0
    vertex 901.2942669806318 53.08513303895094 4.00741339852274e-29
  endloop
endfacet
facet normal 1.0 0.0 0.0
  outer loop
    vertex 901.2942669806318 53.08513303895094 12.0
    vertex 901.2942669806318 57.38513303895091 4.00741339852274e-29
    vertex 901.2942669806318 57.38513303895091 12.0
  endloop
endfacet
facet normal 0.0 1.0 0.0
  outer loop
    vertex 901.2942669806318 53.08513303895094 12.0
    vertex 904.044266980632 53.08513303895094 4.00741339852274e-29
    vertex 901.2942669806318 53.08513303895094 4.00741339852274e-29
  endloop
endfacet
facet normal 0.0 1.0 0.0
  outer loop
    vertex 904.044266980632 53.08513303895094 4.00741339852274e-29
    vertex 901.2942669806318 53.08513303895094 12.0
    vertex 904.044266980632 53.08513303895094 12.0
  endloop
endfacet
facet normal -1.0 0.0 0.0
  outer loop
    vertex 893.6792669806321 44.035133038950974 12.0
    vertex 893.6792669806321 40.73513303895091 4.00741339852274e-29
    vertex 893.6792669806321 40.73513303895091 12.0
  endloop
endfacet
facet normal -1.0 0.0 0.0
  outer loop
    vertex 893.6792669806321 40.73513303895091 4.00741339852274e-29
    vertex 893.6792669806321 44.035133038950974 12.0
    vertex 893.6792669806321 44.035133038950974 4.00741339852274e-29
  endloop
endfacet
facet normal -0.0 -1.0 -0.0
  outer loop
    vertex 893.6792669806321 44.035133038950974 12.0
    vertex 891.9292669806321 44.035133038950974 4.00741339852274e-29
    vertex 893.6792669806321 44.035133038950974 4.00741339852274e-29
  endloop
endfacet
facet normal -0.0 -1.0 -0.0
  outer loop
    vertex 891.9292669806321 44.035133038950974 4.00741339852274e-29
    vertex 893.6792669806321 44.035133038950974 12.0
    vertex 891.9292669806321 44.035133038950974 12.0
  endloop
endfacet
facet normal 1.0 0.0 0.0
  outer loop
    vertex 891.9292669806321 44.035133038950974 4.00741339852274e-29
    vertex 891.9292669806321 42.085133038950964 12.0
    vertex 891.9292669806321 42.085133038950964 4.00741339852274e-29
  endloop
endfacet
facet normal 1.0 0.0 0.0
  outer loop
    vertex 891.9292669806321 42.085133038950964 12.0
    vertex 891.9292669806321 44.035133038950974 4.00741339852274e-29
    vertex 891.9292669806321 44.035133038950974 12.0
  endloop
endfacet
facet normal -0.0 -1.0 -0.0
  outer loop
    vertex 891.9292669806321 42.085133038950964 12.0
    vertex 886.9792669806321 42.085133038950964 4.00741339852274e-29
    vertex 891.9292669806321 42.085133038950964 4.00741339852274e-29
  endloop
endfacet
facet normal -0.0 -1.0 -0.0
  outer loop
    vertex 886.9792669806321 42.085133038950964 4.00741339852274e-29
    vertex 891.9292669806321 42.085133038950964 12.0
    vertex 886.9792669806321 42.085133038950964 12.0
  endloop
endfacet
facet normal 0.0 1.0 0.0
  outer loop
    vertex 886.9792669806321 55.53513303895093 12.0
    vertex 891.9292669806321 55.53513303895093 4.00741339852274e-29
    vertex 886.9792669806321 55.53513303895093 4.00741339852274e-29
  endloop
endfacet
facet normal 0.0 1.0 0.0
  outer loop
    vertex 891.9292669806321 55.53513303895093 4.00741339852274e-29
    vertex 886.9792669806321 55.53513303895093 12.0
    vertex 891.9292669806321 55.53513303895093 12.0
  endloop
endfacet
facet normal -1.0 0.0 0.0
  outer loop
    vertex 893.6792669806321 56.88513303895094 12.0
    vertex 893.6792669806321 53.58513303895092 4.00741339852274e-29
    vertex 893.6792669806321 53.58513303895092 12.0
  endloop
endfacet
facet normal -1.0 0.0 0.0
  outer loop
    vertex 893.6792669806321 53.58513303895092 4.00741339852274e-29
    vertex 893.6792669806321 56.88513303895094 12.0
    vertex 893.6792669806321 56.88513303895094 4.00741339852274e-29
  endloop
endfacet
facet normal -0.0 -1.0 -0.0
  outer loop
    vertex 893.6792669806321 56.88513303895094 12.0
    vertex 885.6292669806321 56.88513303895094 4.00741339852274e-29
    vertex 893.6792669806321 56.88513303895094 4.00741339852274e-29
  endloop
endfacet
facet normal -0.0 -1.0 -0.0
  outer loop
    vertex 885.6292669806321 56.88513303895094 4.00741339852274e-29
    vertex 893.6792669806321 56.88513303895094 12.0
    vertex 885.6292669806321 56.88513303895094 12.0
  endloop
endfacet
facet normal -1.0 0.0 0.0
  outer loop
    vertex 886.9792669806321 55.53513303895093 12.0
    vertex 886.9792669806321 42.085133038950964 4.00741339852274e-29
    vertex 886.9792669806321 42.085133038950964 12.0
  endloop
endfacet
facet normal -1.0 0.0 0.0
  outer loop
    vertex 886.9792669806321 42.085133038950964 4.00741339852274e-29
    vertex 886.9792669806321 55.53513303895093 12.0
    vertex 886.9792669806321 55.53513303895093 4.00741339852274e-29
  endloop
endfacet
facet normal 1.0 0.0 0.0
  outer loop
    vertex 891.9292669806321 55.53513303895093 4.00741339852274e-29
    vertex 891.9292669806321 53.58513303895092 12.0
    vertex 891.9292669806321 53.58513303895092 4.00741339852274e-29
  endloop
endfacet
facet normal 1.0 0.0 0.0
  outer loop
    vertex 891.9292669806321 53.58513303895092 12.0
    vertex 891.9292669806321 55.53513303895093 4.00741339852274e-29
    vertex 891.9292669806321 55.53513303895093 12.0
  endloop
endfacet
facet normal 0.0 1.0 0.0
  outer loop
    vertex 891.9292669806321 53.58513303895092 12.0
    vertex 893.6792669806321 53.58513303895092 4.00741339852274e-29
    vertex 891.9292669806321 53.58513303895092 4.00741339852274e-29
  endloop
endfacet
facet normal 0.0 1.0 0.0
  outer loop
    vertex 893.6792669806321 53.58513303895092 4.00741339852274e-29
    vertex 891.9292669806321 53.58513303895092 12.0
    vertex 893.6792669806321 53.58513303895092 12.0
  endloop
endfacet
endsolid workspace
